<?xml version="1.0" encoding="UTF-8"?>
<svg width="163px" height="40px" viewBox="0 0 163 40" version="1.1" xmlns="http://www.w3.org/2000/svg" xmlns:xlink="http://www.w3.org/1999/xlink">
    <!-- Generator: Sketch 46.2 (44496) - http://www.bohemiancoding.com/sketch -->
    <title>DAX30 Logo</title>
    <desc>Created with Sketch.</desc>
    <defs></defs>
    <g id="German-Election" stroke="none" stroke-width="1" fill="none" fill-rule="evenodd">
        <g id="German-Election-2017-Lander-2.0" transform="translate(-638.000000, -2317.000000)">
            <g id="DAX30-CTA" transform="translate(0.000000, 2237.000000)">
                <g id="DAX30-Logo" transform="translate(638.000000, 80.000000)">
                    <polygon id="Fill-1" fill="#FFFFFF" points="0 0 0 39.2 78.4664981 39.2 92 19.4850629 78.4664981 0"></polygon>
                    <polygon id="Fill-2" fill="#FFFFFF" points="103.2 35.2 92.4662259 35.2 81.6 18.8340648 91.7767643 3.2 102.740143 3.2 92.1695858 18.9255486"></polygon>
                    <polygon id="Fill-3" fill="#002F5F" points="78.9900212 18.9255486 67.6612893 3.2 78.6668911 3.2 89.6 18.8340648 77.9747946 35.2 67.2 35.2"></polygon>
                    <g id="Group-44" transform="translate(2.800000, 3.200000)">
                        <path d="M13.4573743,24.9054445 C18.7829297,24.9054445 22.318203,21.9741127 22.318203,16.7075264 C22.318203,11.5777764 18.7829297,8.50896273 13.4573743,8.50896273 L9.83054884,8.50896273 L9.83054884,24.9054445 L13.4573743,24.9054445 Z M0.923782311,0.723167273 L13.3195608,0.723167273 C24.7972293,0.723167273 31.4540118,7.31809909 31.4540118,16.6613764 C31.4540118,25.9133218 24.7056771,32.7832173 13.1358094,32.7832173 L0.923782311,32.7832173 L0.923782311,0.723167273 Z" id="Fill-4" fill="#002F5F"></path>
                        <path d="M50.526436,20.1423773 L46.9455484,11.0279136 L43.3183994,20.1423773 L50.526436,20.1423773 Z M42.7215308,0.494095455 L51.3067324,0.494095455 L64.9884472,32.7829591 L55.4388743,32.7829591 L53.097338,27.0581 L40.7015595,27.0581 L38.4059611,32.7829591 L29.0401396,32.7829591 L42.7215308,0.494095455 Z" id="Fill-6" fill="#002F5F"></path>
                        <path d="M102.934242,27.7450573 L108.535425,22.15768 C110.8307,24.4932573 113.264112,25.82128 116.202193,25.82128 C118.727481,25.82128 120.334658,24.5390845 120.334658,22.4778255 C120.334658,20.4172118 118.452177,19.1805209 115.100332,19.1805209 L111.335693,19.1805209 L110.05008,14.5545482 L117.442191,7.91378909 L105.137965,7.91378909 L105.137965,0.723425455 L128.368929,0.723425455 L128.368929,7.08954364 L120.701191,13.6389709 C125.292387,14.6462027 129.011089,17.2109164 129.011089,22.7527891 C129.011089,29.2563891 123.777732,33.4244118 116.615957,33.4244118 C110.417583,33.4244118 106.056075,31.1801664 102.934242,27.7450573" id="Fill-8" fill="#FFFFFF"></path>
                        <path d="M151.157952,16.7529664 C151.157952,11.6690436 148.724863,7.95929364 145.18959,7.95929364 C141.654964,7.95929364 139.313104,11.5322073 139.313104,16.7529664 C139.313104,21.8827164 141.700902,25.5466391 145.281466,25.5466391 C148.862677,25.5466391 151.157952,21.9282209 151.157952,16.7529664 M130.360723,16.7529664 C130.360723,7.68465273 136.145334,0.0818436364 145.281466,0.0818436364 C154.417598,0.0818436364 160.11098,7.59299818 160.11098,16.7529664 C160.11098,25.82128 154.371984,33.4244118 145.18959,33.4244118 C136.007844,33.4244118 130.360723,25.9132573 130.360723,16.7529664" id="Fill-10" fill="#FFFFFF"></path>
                    </g>
                </g>
            </g>
        </g>
    </g>
</svg>